<?xml version="1.0" encoding="utf-8"?>
<!-- Generator: Adobe Illustrator 19.0.0, SVG Export Plug-In . SVG Version: 6.00 Build 0)  -->
<svg version="1.1" id="Layer_1" xmlns="http://www.w3.org/2000/svg" xmlns:xlink="http://www.w3.org/1999/xlink" x="0px" y="0px"
	 viewBox="345 157 1302 479" style="enable-background:new 345 157 1302 479;" xml:space="preserve">
<style type="text/css">
	.st0{clip-path:url(#SVGID_2_);}
	.st1{enable-background:new    ;}
	.st2{fill:#EB1F57;}
</style>
<g>
	<defs>
		<rect id="SVGID_1_" x="345" y="160" width="1302" height="479"/>
	</defs>
	<clipPath id="SVGID_2_">
		<use xlink:href="#SVGID_1_"  style="overflow:visible;"/>
	</clipPath>
	<g id="gx_80_ed" class="st0">
		<g class="st1">
			<path class="st2" d="M823.1,366.6l-11.6,2.5c-1.8-8.2-6.5-12.3-14.3-12.3c-5.7,0-10.2,2.3-13.2,6.8c-2.8,4.1-4.2,9.8-4.2,17.1
				c0,8.2,1.8,14.4,5.3,18.6c3,3.5,7,5.2,11.9,5.2c9,0,14.2-5.6,15.4-16.9h-16.1v-8.3h27.2v32.7h-8l-1.3-9c-1.9,3.4-4.6,5.9-8.1,7.6
				c-3,1.5-6.5,2.2-10.3,2.2c-9.3,0-16.6-3.1-21.8-9.4c-4.6-5.6-7-13.2-7-22.6c0-10.7,3.1-19,9.4-24.9c5.3-4.9,12.2-7.4,20.5-7.4
				c7.4,0,13.5,1.9,18.2,5.6C819.1,357.2,821.7,361.4,823.1,366.6z"/>
			<path class="st2" d="M836.1,378.7c2.5-8.1,9.2-12.1,20.1-12.1c12.6,0,18.9,4.9,18.9,14.6v17.4c0,4.2,0.3,8.6,0.8,13h-10.3
				c-0.3-1.6-0.6-3.6-0.8-5.7c-3.5,4.5-8.6,6.8-15.3,6.8c-4.8,0-8.6-1.3-11.3-4c-2.4-2.3-3.6-5.4-3.6-9.1c0-7.8,5.3-12.6,15.9-14.5
				c3.9-0.7,8.6-1.1,13.9-1.2v-2.5c0-2.9-0.8-5-2.3-6.2c-1.3-1-3.4-1.6-6.1-1.6c-2.5,0-4.6,0.7-6.3,2.2c-1.5,1.4-2.5,3.2-3,5.5
				L836.1,378.7z M864.3,390c-3.7,0.1-7.4,0.5-11.2,1.3c-5.3,1.1-8,3.6-8,7.5c0,4.4,2.6,6.6,7.8,6.6c4.7,0,8.5-2.4,11.3-7.2V390z"/>
			<path class="st2" d="M899.8,367.7v7.7c4.2-5.8,9.3-8.7,15.3-8.7c3.4,0,6.2,0.9,8.4,2.7c1.8,1.5,3,3.5,3.6,5.9
				c4.2-5.7,9.3-8.6,15.4-8.6c4.3,0,7.6,1.3,10,3.9c2.2,2.3,3.2,5.4,3.2,9.3v31.7h-11.2v-28.8c0-4.9-2.3-7.4-6.8-7.4
				c-2,0-4,0.8-6,2.3c-1.7,1.4-3.1,3.1-4.2,5.1v28.8h-11v-28.8c0-4.9-2-7.4-6-7.4c-2,0-4.1,0.8-6.1,2.3c-1.8,1.4-3.3,3.1-4.4,5.2
				v28.8h-11v-43.9H899.8z"/>
			<path class="st2" d="M1010.8,391.8h-32.9c0.1,4.6,1.2,8.1,3.5,10.5c2.1,2.2,5,3.3,8.7,3.3c5.2,0,8.6-2.8,10.3-8.4l10.1,2.7
				c-3.1,8.5-9.9,12.7-20.5,12.7c-7.8,0-13.7-2.3-17.7-6.8c-3.5-4-5.3-9.3-5.3-16c0-7.6,2.3-13.5,6.9-17.7c4-3.6,9-5.5,15.1-5.5
				c6.9,0,12.3,2.3,16.3,6.8c3.6,4.1,5.5,9.5,5.5,16.3V391.8z M999.9,385.2c-0.5-7.7-4.1-11.5-10.6-11.5c-3.5,0-6.3,1.2-8.3,3.5
				c-1.7,2-2.6,4.7-2.9,8H999.9z"/>
			<path class="st2" d="M1064,361.6l-0.7,8.1c-2.5,0-4.4,0.2-5.7,0.6c-1,0.3-2,0.9-3,1.7c2.7,2.5,4,5.4,4,8.8c0,4.8-2,8.5-6.1,11.1
				c-3.4,2.2-7.8,3.4-13.1,3.4c-2.3,0-4.4-0.2-6.3-0.7c-2.4,1.1-3.5,2.3-3.5,3.8c0,1,0.5,1.8,1.5,2.2c1,0.4,2.7,0.8,5.3,1l11,0.8
				c6.5,0.6,11.1,1.9,13.7,4.1c2.1,1.7,3.1,4.2,3.1,7.3c0,4.2-2.4,7.6-7.1,10c-4.4,2.2-10.1,3.3-17.3,3.3c-7.4,0-13-1.1-17-3.3
				c-3.3-1.9-4.9-4.3-4.9-7.3c0-3.7,3-6.6,9-8.5c-4.6-0.9-6.8-3-6.8-6.3c0-3.3,2.5-6.3,7.4-9.1c-4.6-2.7-6.9-6.5-6.9-11.6
				c0-4.5,2-8.1,6.1-10.7c3.4-2.3,7.8-3.4,13-3.4c4,0,7.5,0.7,10.3,2.1c1.7-2.8,3.7-4.7,6.1-5.8C1058,362.1,1060.6,361.6,1064,361.6
				z M1033.5,409c-4.4,1.2-6.5,3.2-6.5,6c0,2,1.4,3.6,4.2,4.7c2.4,0.9,5.4,1.4,9.2,1.4c4.8,0,8.6-0.7,11.1-2c2-1,3.1-2.3,3.1-3.9
				c0-1.7-0.7-2.9-2-3.6c-1.3-0.7-3.7-1.2-7-1.5L1033.5,409z M1039.5,372.6c-2.7,0-4.9,0.8-6.6,2.4c-1.5,1.5-2.2,3.3-2.2,5.6
				c0,2.9,0.9,5.2,2.8,6.7c1.6,1.3,3.6,1.9,6,1.9c2.8,0,5-0.8,6.7-2.5c1.5-1.5,2.2-3.6,2.2-6.1c0-2.7-1-4.7-2.9-6.2
				C1043.9,373.2,1041.9,372.6,1039.5,372.6z"/>
			<path class="st2" d="M1114.4,391.8h-32.9c0.1,4.6,1.2,8.1,3.5,10.5c2.1,2.2,5,3.3,8.7,3.3c5.2,0,8.6-2.8,10.3-8.4l10.1,2.7
				c-3.1,8.5-9.9,12.7-20.5,12.7c-7.8,0-13.7-2.3-17.7-6.8c-3.5-4-5.3-9.3-5.3-16c0-7.6,2.3-13.5,6.9-17.7c4-3.6,9-5.5,15.1-5.5
				c6.9,0,12.3,2.3,16.3,6.8c3.6,4.1,5.5,9.5,5.5,16.3V391.8z M1103.5,385.2c-0.5-7.7-4.1-11.5-10.6-11.5c-3.5,0-6.3,1.2-8.3,3.5
				c-1.7,2-2.6,4.7-2.9,8H1103.5z"/>
			<path class="st2" d="M1136.5,367.7v7.7c2.1-2.9,4.7-5.1,7.6-6.6c2.7-1.4,5.5-2.1,8.4-2.1c4.4,0,7.9,1.3,10.4,3.9
				c2.3,2.3,3.5,5.4,3.5,9.3v31.7h-11.4v-28.8c0-4.9-2.3-7.4-6.8-7.4c-2.1,0-4.2,0.8-6.4,2.3c-1.9,1.3-3.5,3.1-4.9,5.2v28.8h-11.2
				v-43.9H1136.5z"/>
			<path class="st2" d="M1192,349.5v10.3h-12.1v-10.3H1192z M1191.5,367.7v43.9h-11.2v-43.9H1191.5z"/>
			<path class="st2" d="M1243.3,367.7l-14.9,21.3l15.6,22.5h-12l-8-12.4c-1-1.5-1.7-2.7-2.1-3.5c-0.7,1.2-1.4,2.3-2.1,3.4l-7.6,12.4
				h-11.7l15.3-22.3l-14.8-21.6h12l7.4,11.7c0.2,0.3,0.6,0.9,1.1,1.8c0.4,0.6,0.7,1.1,1,1.5c1-1.5,1.7-2.6,2.1-3.4l6.9-11.7H1243.3z
				"/>
		</g>
	</g>
</g>
</svg>
