<?xml version="1.0" encoding="utf-8"?>
<!-- Generator: Adobe Illustrator 19.0.0, SVG Export Plug-In . SVG Version: 6.00 Build 0)  -->
<svg version="1.1" id="Layer_1" xmlns="http://www.w3.org/2000/svg" xmlns:xlink="http://www.w3.org/1999/xlink" x="0px" y="0px"
	 viewBox="345 157 1302 479" style="enable-background:new 345 157 1302 479;" xml:space="preserve">
<style type="text/css">
	.st0{clip-path:url(#SVGID_2_);}
	.st1{enable-background:new    ;}
	.st2{fill:#E2144C;}
</style>
<g>
	<defs>
		<rect id="SVGID_1_" x="442.7" y="148.2" width="1106.6" height="479"/>
	</defs>
	<clipPath id="SVGID_2_">
		<use xlink:href="#SVGID_1_"  style="overflow:visible;"/>
	</clipPath>
	<g id="gx_95_ed" class="st0">
		<g class="st1">
			<path class="st2" d="M706.5,380.5l-14,2.4c-0.9,0.2-1.8-0.3-2-0.9c-2.9-8.9-9.8-13.3-20.8-13.3c-8.5,0-15,2.7-19.6,8
				c-4.1,4.9-6.2,11.5-6.2,20.1c0,9.7,2.6,16.9,7.9,21.8c4.4,4.1,10.3,6.1,17.7,6.1c12.9,0,20.4-6.2,22.5-18.5
				c0.1-0.7-0.7-1.3-1.6-1.3h-20.3c-0.9,0-1.6-0.5-1.6-1.2v-7.4c0-0.7,0.7-1.2,1.6-1.2h37c0.9,0,1.6,0.5,1.6,1.2v36
				c0,0.7-0.7,1.2-1.6,1.2h-8.7c-0.8,0-1.5-0.4-1.6-1l-1.2-6.2c-0.2-1.1-2.1-1.4-2.9-0.6c-2.5,2.6-5.8,4.7-9.7,6.2
				c-4.5,1.7-9.6,2.6-15.3,2.6c-13.8,0-24.6-3.7-32.2-11.1c-6.9-6.6-10.3-15.5-10.3-26.6c0-12.6,4.7-22.4,14-29.2
				c7.9-5.8,18-8.7,30.4-8.7c11,0,20,2.2,26.9,6.6c5.3,3.4,9.1,7.9,11.3,13.5C708,379.6,707.4,380.3,706.5,380.5z"/>
			<path class="st2" d="M729.1,394.7c-0.9-0.2-1.4-0.9-1.1-1.6c4.1-8.6,13.8-13,29.3-13c18.6,0,27.9,5.7,27.9,17.1v20.5
				c0,4.6,0.3,9.2,1,13.9c0.1,0.7-0.7,1.3-1.6,1.3h-12c-0.8,0-1.5-0.4-1.6-1c-0.2-0.9-0.4-1.9-0.6-2.9c-0.2-1-1.9-1.4-2.8-0.7
				c-5,3.9-11.8,5.8-20.3,5.8c-7.1,0-12.7-1.6-16.8-4.7c-3.6-2.8-5.4-6.3-5.4-10.6c0-9.2,7.8-14.9,23.5-17c5.4-0.7,11.7-1.2,19-1.4
				c0.9,0,1.6-0.5,1.6-1.2v-1.8c0-3.4-1.1-5.9-3.4-7.3c-2-1.2-5-1.8-9.1-1.8c-3.8,0-6.9,0.9-9.4,2.6c-1.9,1.4-3.3,3.1-4.1,5.3
				c-0.2,0.6-1.1,1-2,0.8L729.1,394.7z M769.1,409c0-0.7-0.8-1.2-1.7-1.2c-4.9,0.2-9.9,0.6-14.8,1.5c-7.9,1.3-11.8,4.3-11.8,8.8
				c0,5.2,3.8,7.8,11.5,7.8c6.9,0,12.4-2.7,16.6-8.2c0.1-0.2,0.2-0.4,0.2-0.6V409z"/>
			<path class="st2" d="M821.7,382.6v4.2c0,1.1,1.9,1.6,2.9,0.7c5.6-4.9,12.2-7.3,19.8-7.3c5,0,9.1,1,12.4,3.1
				c2,1.3,3.5,2.9,4.5,4.8c0.5,0.9,2,1,2.8,0.3c5.8-5.4,12.8-8.2,20.9-8.2c6.4,0,11.3,1.5,14.9,4.6c3.2,2.7,4.8,6.4,4.8,10.9v36
				c0,0.7-0.7,1.2-1.6,1.2h-13.2c-0.9,0-1.6-0.5-1.6-1.2v-32.7c0-5.8-3.3-8.7-10-8.7c-3,0-6,0.9-8.9,2.8c-2.4,1.5-4.4,3.5-6,5.8
				c-0.1,0.2-0.2,0.4-0.2,0.5v32.3c0,0.7-0.7,1.2-1.6,1.2h-13c-0.9,0-1.6-0.5-1.6-1.2v-32.7c0-5.8-3-8.7-8.9-8.7
				c-3,0-6.1,0.9-9.1,2.7c-2.6,1.5-4.7,3.5-6.3,5.8c-0.1,0.2-0.2,0.4-0.2,0.6v32.3c0,0.7-0.7,1.2-1.6,1.2h-13
				c-0.9,0-1.6-0.5-1.6-1.2v-49.2c0-0.7,0.7-1.2,1.6-1.2H820C820.9,381.4,821.7,381.9,821.7,382.6z"/>
			<path class="st2" d="M984.3,409.8h-45.4c-0.9,0-1.7,0.6-1.6,1.2c0.3,4.8,2.1,8.5,5.2,11.2c3.1,2.6,7.4,3.9,12.9,3.9
				c7.3,0,12.2-2.9,14.7-8.7c0.3-0.6,1.2-0.9,2-0.8l11.7,2.4c0.9,0.2,1.4,0.9,1.1,1.6c-4.8,9.2-14.7,13.8-29.8,13.8
				c-11.5,0-20.2-2.7-26.2-8c-5.3-4.6-7.9-10.9-7.9-18.8c0-8.9,3.4-15.9,10.3-20.8c5.9-4.3,13.3-6.4,22.4-6.4
				c10.2,0,18.2,2.6,24.1,7.9c5.4,4.8,8.1,11.2,8.1,19.1v1.2C985.9,409.2,985.2,409.8,984.3,409.8z M968,402c1,0,1.7-0.6,1.6-1.3
				c-1.2-8.1-6.4-12.2-15.6-12.2c-5.3,0-9.3,1.4-12.2,4.1c-2.2,2.1-3.6,4.8-4.1,8c-0.1,0.7,0.6,1.4,1.6,1.4H968z"/>
			<path class="st2" d="M1064.5,375.6l-0.8,7.1c-0.1,0.6-0.7,1.1-1.6,1.1c-3,0.1-5.3,0.3-6.9,0.7c-1,0.2-2,0.6-3,1.1
				c-0.8,0.4-0.9,1.2-0.3,1.7c3.2,2.7,4.7,5.8,4.7,9.4c0,5.6-3,10-9,13.1c-5,2.6-11.5,3.9-19.3,3.9c-3.1,0-6-0.3-8.7-0.8
				c-0.4-0.1-0.8,0-1.2,0.1c-3.1,1.2-4.7,2.6-4.7,4.3c0,1.2,0.7,2.1,2.2,2.6c1.5,0.5,4.1,0.9,7.8,1.1l16.3,1
				c9.7,0.7,16.4,2.3,20.3,4.8c3.1,2.1,4.6,4.9,4.6,8.6c0,5-3.5,8.9-10.6,11.8c-6.4,2.6-15,3.9-25.6,3.9c-10.9,0-19.3-1.3-25.1-3.9
				c-4.9-2.2-7.3-5.1-7.3-8.6c0-3.7,3.1-6.6,9.2-8.8c1.3-0.5,1.2-1.8,0-2.2c-4-1.3-6-3.5-6-6.5c0-3.5,3-6.7,9-9.7
				c0.9-0.5,0.9-1.4,0.1-1.9c-5.5-3.1-8.3-7.3-8.3-12.6c0-5.3,3-9.5,9-12.6c5.1-2.7,11.5-4,19.3-4c5.3,0,10,0.7,13.9,2
				c0.8,0.3,1.7,0.1,2.1-0.5c2.4-2.8,5.1-4.7,8.2-5.8c2.6-1,6-1.5,10-1.7C1063.8,374.3,1064.6,374.9,1064.5,375.6z M1019.9,430
				c-0.2,0-0.5,0-0.7,0.1c-6.2,1.5-9.3,3.8-9.3,6.9c0,2.4,2.1,4.2,6.2,5.5c3.5,1.1,8.1,1.7,13.6,1.7c7.2,0,12.7-0.8,16.5-2.3
				c3-1.2,4.5-2.7,4.5-4.5c0-2-1-3.4-2.9-4.2c-2-0.8-5.4-1.4-10.3-1.8L1019.9,430z M1028.4,387.2c-4.1,0-7.3,0.9-9.8,2.8
				c-2.2,1.7-3.3,3.9-3.3,6.6c0,3.5,1.4,6.1,4.2,7.9c2.3,1.5,5.3,2.2,8.9,2.2c4.2,0,7.5-1,9.9-2.9c2.2-1.8,3.3-4.2,3.3-7.2
				c0-3.1-1.4-5.6-4.3-7.3C1034.9,388,1032,387.2,1028.4,387.2z"/>
			<path class="st2" d="M1137.7,409.8h-45.3c-0.9,0-1.7,0.6-1.6,1.2c0.3,4.8,2.1,8.5,5.2,11.2c3.1,2.6,7.4,3.9,12.9,3.9
				c7.3,0,12.2-2.9,14.7-8.7c0.3-0.6,1.2-0.9,2-0.8l11.7,2.4c0.9,0.2,1.4,0.9,1.1,1.6c-4.8,9.2-14.7,13.8-29.8,13.8
				c-11.5,0-20.2-2.7-26.2-8c-5.3-4.6-7.9-10.9-7.9-18.8c0-8.9,3.4-15.9,10.3-20.8c5.9-4.3,13.3-6.4,22.4-6.4
				c10.2,0,18.2,2.6,24.1,7.9c5.4,4.8,8.1,11.2,8.1,19.1v1.2C1139.3,409.2,1138.6,409.8,1137.7,409.8z M1121.4,402
				c1,0,1.7-0.6,1.6-1.3c-1.2-8.1-6.4-12.2-15.6-12.2c-5.3,0-9.3,1.4-12.2,4.1c-2.2,2.1-3.6,4.8-4.1,8c-0.1,0.7,0.6,1.4,1.6,1.4
				H1121.4z"/>
			<path class="st2" d="M1172,382.6v4.4c0,1.1,1.9,1.6,2.9,0.8c2.5-2.1,5.3-3.8,8.4-5c4-1.6,8.1-2.4,12.4-2.4
				c6.5,0,11.7,1.5,15.4,4.6c3.4,2.8,5.1,6.4,5.1,10.9v36c0,0.7-0.7,1.2-1.6,1.2h-13.6c-0.9,0-1.6-0.5-1.6-1.2v-32.7
				c0-5.8-3.3-8.7-10-8.7c-3.1,0-6.2,0.9-9.5,2.7c-2.7,1.5-5,3.4-7,5.8c-0.2,0.2-0.3,0.4-0.3,0.6v32.3c0,0.7-0.7,1.2-1.6,1.2h-13.2
				c-0.9,0-1.6-0.5-1.6-1.2v-49.2c0-0.7,0.7-1.2,1.6-1.2h12.7C1171.3,381.4,1172,381.9,1172,382.6z"/>
			<path class="st2" d="M1254.2,361.3v9.7c0,0.7-0.7,1.2-1.6,1.2H1238c-0.9,0-1.6-0.5-1.6-1.2v-9.7c0-0.7,0.7-1.2,1.6-1.2h14.6
				C1253.4,360.1,1254.2,360.6,1254.2,361.3z M1253.5,382.6v49.2c0,0.7-0.7,1.2-1.6,1.2h-13.2c-0.9,0-1.6-0.5-1.6-1.2v-49.2
				c0-0.7,0.7-1.2,1.6-1.2h13.2C1252.7,381.4,1253.5,381.9,1253.5,382.6z"/>
			<path class="st2" d="M1328.5,383.3l-19.9,22.6c-0.3,0.4-0.3,0.9,0,1.3l21,24c0.7,0.8-0.1,1.8-1.4,1.8h-13.8
				c-0.6,0-1.1-0.2-1.4-0.6l-11.4-14c-0.6-0.8-1.2-1.5-1.7-2.2c-0.6-0.8-2.3-0.8-2.9,0c-0.5,0.7-1.1,1.4-1.6,2.1l-10.8,14
				c-0.3,0.4-0.8,0.6-1.4,0.6h-13.4c-1.3,0-2.1-1-1.4-1.8l20.5-23.7c0.3-0.4,0.3-0.9,0-1.3l-19.8-22.9c-0.7-0.8,0.1-1.8,1.4-1.8
				h13.8c0.6,0,1.1,0.2,1.4,0.6l10.5,13.2c0.3,0.4,0.9,1.1,1.7,2.2c0,0,0,0,0,0c0.6,0.8,2.2,0.8,2.9,0c0.7-0.9,1.3-1.7,1.7-2.3
				l9.8-13.1c0.3-0.4,0.8-0.6,1.4-0.6h13.3C1328.4,381.4,1329.2,382.5,1328.5,383.3z"/>
		</g>
	</g>
</g>
</svg>
