<?xml version="1.0" encoding="utf-8"?>
<!-- Generator: Adobe Illustrator 19.0.0, SVG Export Plug-In . SVG Version: 6.00 Build 0)  -->
<svg version="1.1" id="Layer_1" xmlns="http://www.w3.org/2000/svg" xmlns:xlink="http://www.w3.org/1999/xlink" x="0px" y="0px"
	 viewBox="345 157 1302 479" style="enable-background:new 345 157 1302 479;" xml:space="preserve">
<style type="text/css">
	.st0{clip-path:url(#SVGID_2_);}
	.st1{enable-background:new    ;}
	.st2{fill:#E2144C;}
</style>
<g>
	<defs>
		<rect id="SVGID_1_" x="442.7" y="148.2" width="1106.6" height="479"/>
	</defs>
	<clipPath id="SVGID_2_">
		<use xlink:href="#SVGID_1_"  style="overflow:visible;"/>
	</clipPath>
	<g id="gx_95_ed" class="st0">
		<g class="st1">
			<path class="st2" d="M800.5,367.6l-9.6,1.9c-0.6,0.1-1.2-0.2-1.4-0.7c-2-7.2-6.7-10.9-14.3-10.9c-5.9,0-10.4,2.2-13.5,6.5
				c-2.9,4-4.3,9.4-4.3,16.4c0,7.9,1.8,13.8,5.4,17.8c3.1,3.3,7.1,5,12.2,5c8.9,0,14.1-5,15.5-15.1c0.1-0.6-0.5-1.1-1.1-1.1h-14
				c-0.6,0-1.1-0.4-1.1-1v-6c0-0.5,0.5-1,1.1-1h25.5c0.6,0,1.1,0.4,1.1,1v29.4c0,0.5-0.5,1-1.1,1h-6c-0.6,0-1-0.4-1.1-0.8L793,405
				c-0.1-0.9-1.4-1.2-2-0.5c-1.7,2.1-4,3.8-6.7,5c-3.1,1.4-6.6,2.1-10.6,2.1c-9.5,0-16.9-3-22.2-9.1c-4.7-5.4-7.1-12.6-7.1-21.7
				c0-10.3,3.2-18.3,9.6-23.8c5.4-4.7,12.4-7.1,20.9-7.1c7.6,0,13.8,1.8,18.5,5.4c3.7,2.8,6.3,6.5,7.8,11
				C801.5,366.9,801.1,367.5,800.5,367.6z"/>
			<path class="st2" d="M816.1,379.3c-0.6-0.1-1-0.7-0.8-1.3c2.8-7.1,9.5-10.6,20.2-10.6c12.8,0,19.3,4.7,19.3,14v16.7
				c0,3.7,0.2,7.5,0.7,11.4c0.1,0.6-0.5,1.1-1.1,1.1H846c-0.6,0-1-0.3-1.1-0.8c-0.1-0.7-0.3-1.5-0.4-2.4c-0.1-0.8-1.3-1.2-1.9-0.6
				c-3.5,3.2-8.1,4.8-14,4.8c-4.9,0-8.8-1.3-11.6-3.8c-2.5-2.2-3.7-5.1-3.7-8.7c0-7.5,5.4-12.1,16.2-13.9c3.7-0.6,8.1-1,13.1-1.2
				c0.6,0,1.1-0.4,1.1-1v-1.5c0-2.8-0.8-4.8-2.3-6c-1.4-1-3.4-1.5-6.3-1.5c-2.6,0-4.7,0.7-6.4,2.1c-1.3,1.1-2.3,2.5-2.8,4.3
				c-0.2,0.5-0.8,0.8-1.4,0.7L816.1,379.3z M843.7,390.9c0-0.6-0.5-1-1.2-1c-3.4,0.1-6.8,0.5-10.2,1.2c-5.4,1.1-8.1,3.5-8.1,7.2
				c0,4.2,2.6,6.4,7.9,6.4c4.7,0,8.6-2.2,11.4-6.7c0.1-0.1,0.1-0.3,0.1-0.5V390.9z"/>
			<path class="st2" d="M879.9,369.4v3.4c0,0.9,1.3,1.3,2,0.6c3.8-4,8.4-6,13.6-6c3.4,0,6.3,0.8,8.5,2.5c1.4,1.1,2.4,2.4,3.1,3.9
				c0.3,0.7,1.4,0.8,1.9,0.2c4-4.4,8.8-6.7,14.4-6.7c4.4,0,7.8,1.2,10.2,3.7c2.2,2.2,3.3,5.2,3.3,8.9v29.4c0,0.5-0.5,1-1.1,1h-9.1
				c-0.6,0-1.1-0.4-1.1-1v-26.7c0-4.7-2.3-7.1-6.9-7.1c-2.1,0-4.1,0.7-6.1,2.2c-1.7,1.3-3,2.8-4.1,4.7c-0.1,0.1-0.1,0.3-0.1,0.4
				v26.4c0,0.5-0.5,1-1.1,1h-8.9c-0.6,0-1.1-0.4-1.1-1v-26.7c0-4.7-2-7.1-6.1-7.1c-2.1,0-4.2,0.7-6.3,2.2c-1.8,1.2-3.2,2.8-4.4,4.7
				c-0.1,0.1-0.1,0.3-0.1,0.5v26.4c0,0.5-0.5,1-1.1,1h-8.9c-0.6,0-1.1-0.4-1.1-1v-40.1c0-0.5,0.5-1,1.1-1h8.6
				C879.4,368.4,879.9,368.8,879.9,369.4z"/>
			<path class="st2" d="M991.9,391.5h-31.3c-0.6,0-1.2,0.5-1.1,1c0.2,3.9,1.4,6.9,3.6,9.1c2.1,2.1,5.1,3.2,8.9,3.2
				c5,0,8.4-2.4,10.2-7.1c0.2-0.5,0.8-0.8,1.4-0.6l8.1,2c0.6,0.2,1,0.7,0.8,1.3c-3.3,7.5-10.1,11.2-20.5,11.2
				c-7.9,0-13.9-2.2-18.1-6.5c-3.6-3.8-5.4-8.9-5.4-15.3c0-7.3,2.4-13,7.1-17c4-3.5,9.2-5.2,15.5-5.2c7,0,12.5,2.2,16.6,6.5
				c3.7,3.9,5.6,9.1,5.6,15.6v1C993.1,391.1,992.6,391.5,991.9,391.5z M980.7,385.2c0.7,0,1.2-0.5,1.1-1.1c-0.8-6.6-4.4-10-10.8-10
				c-3.6,0-6.4,1.1-8.4,3.4c-1.5,1.7-2.4,3.9-2.8,6.6c-0.1,0.6,0.4,1.1,1.1,1.1H980.7z"/>
			<path class="st2" d="M1047.2,363.6l-0.5,5.8c0,0.5-0.5,0.9-1.1,0.9c-2,0-3.6,0.2-4.8,0.6c-0.7,0.2-1.4,0.5-2.1,0.9
				c-0.5,0.3-0.6,1-0.2,1.4c2.2,2.2,3.3,4.8,3.3,7.7c0,4.6-2.1,8.1-6.2,10.7c-3.5,2.1-7.9,3.2-13.3,3.2c-2.1,0-4.1-0.2-6-0.6
				c-0.3-0.1-0.6,0-0.8,0.1c-2.2,1-3.2,2.2-3.2,3.5c0,1,0.5,1.7,1.5,2.1c1,0.4,2.8,0.7,5.4,0.9l11.2,0.8c6.7,0.5,11.3,1.8,14,3.9
				c2.1,1.7,3.2,4,3.2,7c0,4.1-2.4,7.3-7.3,9.6c-4.4,2.1-10.3,3.2-17.7,3.2c-7.5,0-13.3-1.1-17.3-3.2c-3.4-1.8-5-4.1-5-7
				c0-3,2.1-5.4,6.4-7.2c0.9-0.4,0.9-1.4,0-1.8c-2.8-1.1-4.2-2.8-4.2-5.3c0-2.8,2.1-5.5,6.2-7.9c0.6-0.4,0.7-1.2,0-1.6
				c-3.8-2.5-5.7-5.9-5.7-10.3c0-4.3,2.1-7.8,6.2-10.3c3.5-2.2,7.9-3.3,13.3-3.3c3.7,0,6.9,0.5,9.6,1.6c0.5,0.2,1.2,0.1,1.5-0.4
				c1.6-2.3,3.5-3.8,5.6-4.8c1.8-0.8,4.1-1.3,6.9-1.4C1046.7,362.6,1047.3,363.1,1047.2,363.6z M1016.5,408.1c-0.2,0-0.3,0-0.5,0
				c-4.3,1.2-6.4,3.1-6.4,5.7c0,1.9,1.4,3.4,4.2,4.5c2.4,0.9,5.5,1.3,9.4,1.3c4.9,0,8.7-0.6,11.3-1.9c2.1-1,3.1-2.2,3.1-3.7
				c0-1.6-0.7-2.7-2-3.4c-1.4-0.7-3.7-1.2-7.1-1.5L1016.5,408.1z M1022.3,373.2c-2.8,0-5,0.8-6.8,2.3c-1.5,1.4-2.3,3.2-2.3,5.4
				c0,2.8,1,5,2.9,6.4c1.6,1.2,3.6,1.8,6.1,1.8c2.9,0,5.2-0.8,6.8-2.4c1.5-1.5,2.3-3.4,2.3-5.8c0-2.5-1-4.5-3-6
				C1026.8,373.7,1024.8,373.2,1022.3,373.2z"/>
			<path class="st2" d="M1097.6,391.5h-31.3c-0.6,0-1.2,0.5-1.1,1c0.2,3.9,1.4,6.9,3.6,9.1c2.1,2.1,5.1,3.2,8.9,3.2
				c5,0,8.4-2.4,10.2-7.1c0.2-0.5,0.8-0.8,1.4-0.6l8.1,2c0.6,0.2,1,0.7,0.8,1.3c-3.3,7.5-10.1,11.2-20.5,11.2
				c-7.9,0-13.9-2.2-18.1-6.5c-3.6-3.8-5.4-8.9-5.4-15.3c0-7.3,2.4-13,7.1-17c4-3.5,9.2-5.2,15.5-5.2c7,0,12.5,2.2,16.6,6.5
				c3.7,3.9,5.6,9.1,5.6,15.6v1C1098.8,391.1,1098.3,391.5,1097.6,391.5z M1086.4,385.2c0.7,0,1.2-0.5,1.1-1.1
				c-0.8-6.6-4.4-10-10.8-10c-3.6,0-6.4,1.1-8.4,3.4c-1.5,1.7-2.4,3.9-2.8,6.6c-0.1,0.6,0.4,1.1,1.1,1.1H1086.4z"/>
			<path class="st2" d="M1121.3,369.4v3.6c0,0.9,1.3,1.3,2,0.6c1.7-1.7,3.6-3.1,5.8-4.1c2.7-1.3,5.6-2,8.5-2c4.5,0,8.1,1.2,10.6,3.7
				c2.4,2.2,3.5,5.2,3.5,8.9v29.4c0,0.5-0.5,1-1.1,1h-9.4c-0.6,0-1.1-0.4-1.1-1v-26.7c0-4.7-2.3-7.1-6.9-7.1c-2.1,0-4.3,0.7-6.5,2.2
				c-1.8,1.2-3.5,2.8-4.9,4.7c-0.1,0.2-0.2,0.3-0.2,0.5v26.3c0,0.5-0.5,1-1.1,1h-9.1c-0.6,0-1.1-0.4-1.1-1v-40.1c0-0.5,0.5-1,1.1-1
				h8.8C1120.8,368.4,1121.3,368.8,1121.3,369.4z"/>
			<path class="st2" d="M1177.9,352v7.9c0,0.5-0.5,1-1.1,1h-10.1c-0.6,0-1.1-0.4-1.1-1V352c0-0.5,0.5-1,1.1-1h10.1
				C1177.4,351,1177.9,351.4,1177.9,352z M1177.5,369.4v40.1c0,0.5-0.5,1-1.1,1h-9.1c-0.6,0-1.1-0.4-1.1-1v-40.1c0-0.5,0.5-1,1.1-1
				h9.1C1177,368.4,1177.5,368.8,1177.5,369.4z"/>
			<path class="st2" d="M1229.2,369.9l-13.7,18.5c-0.2,0.3-0.2,0.7,0,1l14.4,19.6c0.5,0.7-0.1,1.5-1,1.5h-9.5c-0.4,0-0.8-0.2-1-0.5
				l-7.9-11.4c-0.4-0.7-0.8-1.3-1.2-1.8c-0.4-0.7-1.6-0.7-2,0c-0.4,0.6-0.7,1.1-1.1,1.7l-7.4,11.4c-0.2,0.3-0.6,0.5-1,0.5h-9.2
				c-0.9,0-1.4-0.8-1-1.5l14.2-19.4c0.2-0.3,0.2-0.7,0-1l-13.6-18.7c-0.5-0.7,0.1-1.5,1-1.5h9.5c0.4,0,0.8,0.2,1,0.5l7.3,10.8
				c0.2,0.3,0.6,0.9,1.1,1.8c0,0,0,0,0,0c0.4,0.7,1.5,0.7,2,0c0.5-0.7,0.9-1.4,1.2-1.9l6.7-10.7c0.2-0.3,0.6-0.5,1-0.5h9.2
				C1229.1,368.4,1229.6,369.3,1229.2,369.9z"/>
		</g>
	</g>
</g>
</svg>
